<svg version="1" xmlns="http://www.w3.org/2000/svg" width="682.667" height="682.667" viewBox="0 0 512.000000 512.000000"><path d="M34.6 60c.3 3.6 1 8.8 1.5 11.6 1.1 5.7 2.1 6.4 9.1 6.4 2.1 0 6.7 1 10.3 2.1C64.2 83 69.9 88.4 73 96.5c4.5 12 4.2 19.7-6.4 137.5-5.3 58.6-10.3 112.1-11.1 119-2.8 22.7-7.6 41.5-12.5 49.6-5.1 8.1-14.9 13.7-28.2 16-2 .3-3.9 1.3-4.3 2.2-.8 2.3-3 22-2.4 22.6.2.2 8.1 0 17.4-.6 16.8-1 91.6-.3 98.4.9l3.4.6-.7-7.4c-.4-4.1-1.1-9.7-1.7-12.5l-1-5-6.9-1.2c-14.1-2.4-22.7-8.1-27.1-17.7-3.9-8.7-5.3-20-4.6-37.9.6-14.2 17.8-191.7 19.4-200 .8-3.7 3.6 2.3 67.3 140.3L238.4 447h4.1c5.5 0 17.7-2.7 19.1-4.2.7-.7 19.6-45.8 42.2-100.3 70-169 76.7-185 76.9-183.5.2.8 2.1 18.8 4.3 40 2.2 21.2 7 65.9 10.7 99.5 5.5 50.7 6.6 64 6.7 79 .1 18.9-.5 22.5-4.8 29.3-2.9 4.4-12.3 9-22.9 11l-8.6 1.6-1.1 5c-.6 2.7-1.3 8.3-1.7 12.3l-.6 7.4 7.9-.8c10.1-1 119.2-1 126.2 0l5.4.8-.7-7.8c-.3-4.3-1.1-10.1-1.6-12.9l-1-5.1-5.2-.6c-7.9-1-17.2-6-21.2-11.5-6.5-8.8-10.9-23.9-14-47.7C455 331.1 436 130.7 436 121c0-16.3 3.3-27.1 10.1-33.8 5.6-5.4 11.4-7.6 26-9.7l3.6-.5 1.1-7.8c.7-4.2 1.2-9.5 1.2-11.7v-4l-44.2.1-44.3.2-19.3 48.8c-10.6 26.9-38.2 96.8-61.4 155.4-23.1 58.6-42.4 107.6-43 109-.8 2.1-4.9-6.5-31.4-65-16.8-37.1-48.9-108.2-71.5-158l-41-90.5H34l.6 6.5z"/></svg>